<svg width="2700" height="800" viewBox="0 0 2700 800" fill="none" xmlns="http://www.w3.org/2000/svg">
<rect x="6" y="6" width="2688" height="788" rx="26" fill="#F7F7F7" stroke="#676767" stroke-width="12"/>
<rect x="2625.08" y="788.696" width="56.0804" height="214.696" transform="rotate(180 2625.08 788.696)" fill="#C4001A"/>
<rect x="132.081" y="225.696" width="56.0804" height="214.696" transform="rotate(-180 132.081 225.696)" fill="black"/>
<rect x="2548.08" y="788.823" width="56.0804" height="179.823" transform="rotate(180 2548.08 788.823)" fill="#C4001A"/>
<rect x="200.081" y="190.823" width="56.0804" height="179.823" transform="rotate(180 200.081 190.823)" fill="black"/>
<path d="M1020.52 240.086C1019.83 240.149 1017.64 240.368 1015.67 240.524C970.222 244.621 927.649 269.141 900.685 306.829C885.671 327.784 876.067 351.554 872.439 376.731C871.156 385.519 871 388.115 871 400.031C871 411.947 871.156 414.543 872.439 423.332C881.135 483.413 923.895 533.892 981.89 552.595C992.275 555.942 1003.22 558.225 1015.67 559.601C1020.52 560.133 1041.48 560.133 1046.33 559.601C1067.82 557.224 1086.02 551.907 1103.98 542.743C1106.73 541.336 1107.26 540.961 1106.89 540.648C1106.64 540.46 1094.91 524.729 1080.83 505.713L1055.24 471.153L1023.18 423.707C1005.54 397.623 991.023 376.293 990.898 376.293C990.773 376.262 990.648 397.342 990.586 423.082C990.492 468.15 990.46 469.964 989.897 471.028C989.084 472.56 988.458 473.186 987.145 473.874C986.144 474.374 985.268 474.468 980.544 474.468H975.133L973.694 473.561C972.756 472.967 972.067 472.185 971.598 471.278L970.941 469.871L971.004 407.162L971.098 344.423L972.067 343.203C972.568 342.546 973.631 341.702 974.382 341.295C975.665 340.67 976.165 340.607 981.577 340.607C987.958 340.607 989.022 340.857 990.679 342.671C991.149 343.172 1008.51 369.318 1029.28 400.813C1050.05 432.308 1078.45 475.313 1092.4 496.424L1117.74 534.799L1119.02 533.955C1130.38 526.574 1142.39 516.065 1151.9 505.119C1172.14 481.88 1185.18 453.544 1189.56 423.332C1190.84 414.543 1191 411.947 1191 400.031C1191 388.115 1190.84 385.519 1189.56 376.731C1180.87 316.65 1138.1 266.17 1080.11 247.467C1069.88 244.152 1059 241.869 1046.8 240.493C1043.79 240.18 1023.12 239.836 1020.52 240.086ZM1086.02 336.854C1087.52 337.605 1088.74 339.043 1089.18 340.544C1089.43 341.358 1089.49 358.747 1089.43 397.936L1089.34 454.17L1079.42 438.97L1069.48 423.77V382.892C1069.48 356.464 1069.6 341.608 1069.79 340.889C1070.29 339.137 1071.38 337.761 1072.88 336.948C1074.17 336.291 1074.64 336.228 1079.55 336.228C1084.18 336.228 1084.99 336.291 1086.02 336.854Z" fill="black"/>
<path d="M1350.08 391.729L1364.57 368.57H1373.95L1354.86 398.536L1374.4 429H1364.94L1350.08 405.426L1335.14 429H1325.72L1345.31 398.536L1326.18 368.57H1335.52L1350.08 391.729Z" fill="black"/>
<path d="M1668.16 560C1756.06 560 1827.32 488.366 1827.32 400C1827.32 311.634 1756.06 240 1668.16 240C1580.26 240 1509 311.634 1509 400C1509 488.366 1580.26 560 1668.16 560Z" fill="#C4001A"/>
<path fill-rule="evenodd" clip-rule="evenodd" d="M1595.82 320.66H1740.51V364.295H1595.82V320.66ZM1595.82 378.842H1740.51V422.478H1595.82V378.842ZM1595.82 437.024H1668.16V480.66H1595.82V437.024Z" fill="#E3E3DA"/>
</svg>
