<svg width="760" height="175" viewBox="0 0 760 175" fill="none" xmlns="http://www.w3.org/2000/svg">
<path d="M43.4 142.12C35.4667 142.12 28.56 140.627 22.68 137.64C16.8 134.653 12.2733 130.36 9.1 124.76C5.92667 119.16 4.34 112.58 4.34 105.02C4.34 97.46 5.92667 90.88 9.1 85.28C12.2733 79.68 16.8 75.3867 22.68 72.4C28.56 69.4133 35.4667 67.92 43.4 67.92C51.24 67.92 58.0533 69.46 63.84 72.54C69.72 75.5267 74.2467 79.82 77.42 85.42C80.5933 90.9267 82.18 97.46 82.18 105.02C82.18 112.58 80.5933 119.16 77.42 124.76C74.2467 130.267 69.72 134.56 63.84 137.64C58.0533 140.627 51.24 142.12 43.4 142.12ZM43.4 123.22C52.5467 123.22 57.12 117.153 57.12 105.02C57.12 98.86 55.9533 94.3333 53.62 91.44C51.38 88.4533 47.9733 86.96 43.4 86.96C38.7333 86.96 35.2333 88.4533 32.9 91.44C30.5667 94.3333 29.4 98.86 29.4 105.02C29.4 111.273 30.5667 115.893 32.9 118.88C35.2333 121.773 38.7333 123.22 43.4 123.22ZM94.103 37.96H119.443V141H94.103V37.96ZM134.572 69.88H159.912V141H134.572V69.88ZM160.332 35.02V57.84H133.872V35.02H160.332ZM248.54 70.02L216.9 141H196.04L164.82 70.02H191.14L207.1 110.9L223.62 70.02H248.54ZM317.4 107.96H272.74C273.206 113.467 274.793 117.433 277.5 119.86C280.206 122.287 284.173 123.5 289.4 123.5C292.946 123.5 296.493 122.94 300.04 121.82C303.586 120.607 306.806 118.973 309.7 116.92L316.14 133.72C312.593 136.333 308.3 138.387 303.26 139.88C298.22 141.373 293.18 142.12 288.14 142.12C280.02 142.12 272.973 140.627 267 137.64C261.026 134.653 256.453 130.407 253.28 124.9C250.106 119.3 248.52 112.72 248.52 105.16C248.52 97.9733 250.013 91.58 253 85.98C256.08 80.2867 260.28 75.8533 265.6 72.68C271.013 69.5067 277.173 67.92 284.08 67.92C290.8 67.92 296.68 69.4133 301.72 72.4C306.76 75.3867 310.633 79.68 313.34 85.28C316.046 90.7867 317.4 97.2267 317.4 104.6V107.96ZM284.78 85.28C278.526 85.28 274.606 88.92 273.02 96.2H295.7C294.766 88.92 291.126 85.28 284.78 85.28ZM374.063 68.2C377.516 68.2 380.176 68.7133 382.043 69.74V92.84C378.029 90.9733 374.156 90.04 370.423 90.04C359.783 90.04 354.463 95.1267 354.463 105.3V141H329.123V90.32C329.123 82.6667 328.749 75.8533 328.003 69.88H351.803L353.343 81.78C355.023 77.3933 357.729 74.0333 361.463 71.7C365.196 69.3667 369.396 68.2 374.063 68.2ZM389.279 37.96H414.619V141H389.279V37.96ZM465.588 142.12C457.654 142.12 450.748 140.627 444.868 137.64C438.988 134.653 434.461 130.36 431.288 124.76C428.114 119.16 426.528 112.58 426.528 105.02C426.528 97.46 428.114 90.88 431.288 85.28C434.461 79.68 438.988 75.3867 444.868 72.4C450.748 69.4133 457.654 67.92 465.588 67.92C473.428 67.92 480.241 69.46 486.028 72.54C491.908 75.5267 496.434 79.82 499.608 85.42C502.781 90.9267 504.368 97.46 504.368 105.02C504.368 112.58 502.781 119.16 499.608 124.76C496.434 130.267 491.908 134.56 486.028 137.64C480.241 140.627 473.428 142.12 465.588 142.12ZM465.588 123.22C474.734 123.22 479.308 117.153 479.308 105.02C479.308 98.86 478.141 94.3333 475.808 91.44C473.568 88.4533 470.161 86.96 465.588 86.96C460.921 86.96 457.421 88.4533 455.088 91.44C452.754 94.3333 451.588 98.86 451.588 105.02C451.588 111.273 452.754 115.893 455.088 118.88C457.421 121.773 460.921 123.22 465.588 123.22ZM552.13 142.12C544.197 142.12 537.29 140.627 531.41 137.64C525.53 134.653 521.004 130.36 517.83 124.76C514.657 119.16 513.07 112.58 513.07 105.02C513.07 97.46 514.657 90.88 517.83 85.28C521.004 79.68 525.53 75.3867 531.41 72.4C537.29 69.4133 544.197 67.92 552.13 67.92C559.97 67.92 566.784 69.46 572.57 72.54C578.45 75.5267 582.977 79.82 586.15 85.42C589.324 90.9267 590.91 97.46 590.91 105.02C590.91 112.58 589.324 119.16 586.15 124.76C582.977 130.267 578.45 134.56 572.57 137.64C566.784 140.627 559.97 142.12 552.13 142.12ZM552.13 123.22C561.277 123.22 565.85 117.153 565.85 105.02C565.85 98.86 564.684 94.3333 562.35 91.44C560.11 88.4533 556.704 86.96 552.13 86.96C547.464 86.96 543.964 88.4533 541.63 91.44C539.297 94.3333 538.13 98.86 538.13 105.02C538.13 111.273 539.297 115.893 541.63 118.88C543.964 121.773 547.464 123.22 552.13 123.22ZM649.733 67.92C655.8 67.92 661.213 69.5067 665.973 72.68C670.733 75.8533 674.467 80.2867 677.173 85.98C679.88 91.6733 681.233 98.2067 681.233 105.58C681.233 112.86 679.88 119.3 677.173 124.9C674.56 130.407 670.873 134.653 666.113 137.64C661.353 140.627 655.893 142.12 649.733 142.12C645.067 142.12 640.82 141.233 636.993 139.46C633.167 137.593 630.227 135.027 628.173 131.76V171.24H602.833V90.32C602.833 82.6667 602.46 75.8533 601.713 69.88H625.513L626.913 80.94C628.687 77.02 631.627 73.8933 635.733 71.56C639.84 69.1333 644.507 67.92 649.733 67.92ZM642.033 123.22C646.607 123.22 650.06 121.727 652.393 118.74C654.727 115.753 655.893 111.367 655.893 105.58C655.893 99.7 654.68 95.1733 652.253 92C649.92 88.7333 646.513 87.1 642.033 87.1C637.46 87.1 633.96 88.64 631.533 91.72C629.107 94.8 627.893 99.3267 627.893 105.3C627.893 111.087 629.107 115.52 631.533 118.6C633.96 121.68 637.46 123.22 642.033 123.22ZM721.768 142.12C707.581 142.12 696.381 139.273 688.168 133.58L694.608 116.36C698.434 118.973 702.774 121.027 707.628 122.52C712.481 123.92 717.241 124.62 721.908 124.62C724.801 124.62 727.041 124.2 728.628 123.36C730.214 122.52 731.008 121.353 731.008 119.86C731.008 118.553 730.401 117.527 729.188 116.78C728.068 115.94 725.874 115.193 722.608 114.54L711.128 111.88C703.848 110.387 698.574 108.053 695.308 104.88C692.134 101.613 690.548 97.1333 690.548 91.44C690.548 86.8667 691.901 82.8067 694.608 79.26C697.314 75.7133 701.048 72.96 705.808 71C710.661 68.9467 716.214 67.92 722.468 67.92C727.601 67.92 732.641 68.6667 737.588 70.16C742.534 71.6533 747.154 73.7533 751.448 76.46L744.728 93.26C740.994 90.8333 737.168 88.9667 733.248 87.66C729.328 86.3533 725.641 85.7 722.188 85.7C719.388 85.7 717.194 86.1667 715.608 87.1C714.021 87.94 713.228 89.2 713.228 90.88C713.228 91.9067 713.694 92.7467 714.628 93.4C715.561 93.96 717.334 94.5667 719.948 95.22L731.848 97.88C739.408 99.6533 744.821 102.267 748.088 105.72C751.448 109.08 753.128 113.7 753.128 119.58C753.128 126.58 750.328 132.087 744.728 136.1C739.221 140.113 731.568 142.12 721.768 142.12Z" fill="black"/>
</svg>
